<?xml version="1.0" encoding="utf-8"?>
<svg height="1em" viewBox="0 0 576 512" xmlns="http://www.w3.org/2000/svg">
  <path d="M 0 16 L 16 16 L 176 16 C 237.9 16 288 66.1 288 128 C 288 165 270 197.9 242.3 218.3 C 259.8 225.8 275.3 237.1 287.8 251.1 C 281.2 260.5 275.5 270.6 270.8 281.2 C 253.5 256.3 224.6 240 192 240 C 186.7 240 181.3 240 176 240 C 128 240 80 240 32 240 C 32 304 32 368 32 432 C 85.3 432 138.7 432 192 432 C 220.1 432 245.3 420 262.9 400.8 C 266.1 412 270.4 422.7 275.7 432.9 C 253.2 452.3 224 464 192 464 C 133.3 464 74.7 464 16 464 C 10.7 464 5.3 464 0 464 L 0 448 L 0 240 L 0 224 L 0 208 L 0 32 C 0 26.7 0 21.3 0 16 Z M 32 48 C 32 101.3 32 154.7 32 208 C 80 208 128 208 176 208 C 220.2 208 256 172.2 256 128 C 256 83.8 220.2 48 176 48 L 32 48 Z M 307.3 280 C 333 235.4 380.6 208 432 208 C 483.4 208 531 235.4 556.7 280 C 582.4 324.6 582.4 379.4 556.7 424 C 531 468.6 483.4 496 432 496 C 380.6 496 333 468.6 307.3 424 C 281.6 379.4 281.6 324.6 307.3 280 Z M 335 296 C 315 330.7 315 373.3 335 408 C 355 442.7 392 464 432 464 C 472 464 509 442.7 529 408 C 549 373.3 549 330.7 529 296 C 509 261.3 472 240 432 240 C 392 240 355 261.3 335 296 Z M 352 368 L 456 272 C 452.4 293.3 448.9 314.7 445.3 336 C 467.5 336 489.8 336 512 336 C 477.3 368 442.7 400 408 432 C 411.6 410.7 415.1 389.3 418.7 368 C 396.5 368 374.2 368 352 368 Z" style="fill: rgb(112, 20, 232);"/>
</svg>